<?xml version="1.0" encoding="iso-8859-1"?>
<!-- Generator: Adobe Illustrator 19.0.0, SVG Export Plug-In . SVG Version: 6.00 Build 0)  -->
<svg version="1.1" id="Capa_1" xmlns="http://www.w3.org/2000/svg" xmlns:xlink="http://www.w3.org/1999/xlink" x="0px" y="0px"
	 viewBox="0 0 496 496" style="enable-background:new 0 0 496 496;" xml:space="preserve">
<g>
	<g>
		<g>
			<path d="M388,440c-4.418,0-8,3.582-8,8v32H76V16h224v72c0,4.418,3.582,8,8,8h72v136c0,4.418,3.582,8,8,8s8-3.582,8-8V88.4
				c-0.018-0.215-0.047-0.428-0.088-0.64c-0.028-2.028-0.836-3.967-2.256-5.416l-79.904-80c-0.224-0.167-0.456-0.321-0.696-0.464
				c-0.488-0.423-1.025-0.786-1.6-1.08c-0.296-0.122-0.597-0.229-0.904-0.32c-0.645-0.215-1.314-0.346-1.992-0.392
				C308.352,0.096,308.184,0,308,0H68c-4.418,0-8,3.582-8,8v480c0,4.418,3.582,8,8,8h320c4.418,0,8-3.582,8-8v-40
				C396,443.582,392.418,440,388,440z M316,27.32L368.368,80H316V27.32z"/>
			<path d="M428,256H196c-4.418,0-8,3.582-8,8v152c0,4.418,3.582,8,8,8h232c4.418,0,8-3.582,8-8V264
				C436,259.582,432.418,256,428,256z M420,408H204V272h216V408z"/>
			<path d="M300,392c4.418,0,8-3.582,8-8v-40h24c4.418,0,8-3.582,8-8v-40c0-4.418-3.582-8-8-8h-32c-4.418,0-8,3.582-8,8v88
				C292,388.418,295.582,392,300,392z M308,304h16v24h-16V304z"/>
			<path d="M364,392h32c4.418,0,8-3.582,8-8v-32c0-4.418-3.582-8-8-8h-8c-4.418,0-8,3.582-8,8s3.582,8,8,8v16h-16v-72h16v8
				c0,4.418,3.582,8,8,8s8-3.582,8-8v-16c0-4.418-3.582-8-8-8h-32c-4.418,0-8,3.582-8,8v88C356,388.418,359.582,392,364,392z"/>
			<path d="M228,392h32c4.418,0,8-3.582,8-8v-88c0-4.418-3.582-8-8-8s-8,3.582-8,8v80h-16v-8c0-4.418-3.582-8-8-8s-8,3.582-8,8v16
				C220,388.418,223.582,392,228,392z"/>
		</g>
	</g>
</g>
<g>
</g>
<g>
</g>
<g>
</g>
<g>
</g>
<g>
</g>
<g>
</g>
<g>
</g>
<g>
</g>
<g>
</g>
<g>
</g>
<g>
</g>
<g>
</g>
<g>
</g>
<g>
</g>
<g>
</g>
</svg>
