<?xml version="1.0" encoding="iso-8859-1"?>
<!-- Generator: Adobe Illustrator 19.0.0, SVG Export Plug-In . SVG Version: 6.00 Build 0)  -->
<svg xmlns="http://www.w3.org/2000/svg" xmlns:xlink="http://www.w3.org/1999/xlink" version="1.1" id="Capa_1" x="0px" y="0px" viewBox="0 0 366.4 366.4" style="enable-background:new 0 0 366.4 366.4;" xml:space="preserve" width="512px" height="512px">
<g>
	<g>
		<path d="M362.4,47.8c-2.4-2.4-5.6-4-9.6-4H13.6c-3.6,0-7.2,1.6-9.6,4c-2.4,2.4-4,5.6-4,9.6V309c0.4,4,1.6,7.2,4.4,9.6    c2.4,2.4,6,4,9.6,4h338.8c3.6,0,7.2-1.6,9.6-4c2.4-2.4,4-5.6,4-9.6V57.4C366.4,53.8,364.8,50.2,362.4,47.8z M354,309    c0,0.4,0,0.4-0.4,0.8c0,0-0.4,0.4-0.8,0.4H13.6c-0.4,0-0.4,0-0.8-0.4c0,0-0.4-0.4-0.4-0.8V57.4h0.4c0-0.4,0-0.4,0.4-0.8    c0,0,0.4-0.4,0.8-0.4h338.8c0.4,0,0.4,0,0.8,0.4c0,0,0.4,0.4,0.4,0.8V309z" fill="#FFFFFF"/>
	</g>
</g>
<g>
	<g>
		<path d="M326.4,86.2c-2-2-4.8-3.2-8-3.2H48c-3.2,0-6,1.2-8,3.2s-3.2,4.8-3.2,8V273c-0.4,2.8,0.8,5.6,3.2,8c2,2,4.8,3.2,8,3.2h1.2    H116h19.6h47.2h43.6h90.8h1.2c3.2,0,6-1.2,8-3.2s3.2-4.8,3.2-8V94.2C329.6,91,328.4,88.2,326.4,86.2z M226.4,272.2v-0.4h-43.6    h-47.2H116H60l28-48.4l28-48.4l28,48.4v0.4l9.6,16.8c0.4,0.8,1.2,1.6,2.4,2.4c2.8,1.6,6.8,0.8,8.4-2.4l22-38l40-69.6l40,69.2v0.4    l40,69.6H226.4z M317.6,265.8l-40.4-69.6v-0.4l-45.6-78.4c-1.6-2.8-5.6-4-8.4-2.4c-0.8,0.4-1.6,1.2-2.4,2.4l-45.2,78.8l-16.4,28.4    l-4.4-7.6v-0.4L121.6,159c-1.6-2.8-5.6-4-8.4-2.4c-0.8,0.4-1.6,1.2-2.4,2.4l-33.2,58l-28,48.8V95h268V265.8z" fill="#FFFFFF"/>
	</g>
</g>
<g>
	<g>
		<path d="M174.4,116.6c-4-4-10-6.8-16.4-6.8c-6,0-11.6,2.4-16,6.4l-0.4,0.4c-4,4-6.8,10-6.8,16.4c0,6.4,2.8,12,6.8,16.4    c4,4,10,6.8,16.4,6.8c6.4,0,12-2.4,16.4-6.8c4-4,6.8-10,6.8-16.4C181.2,126.6,178.8,121,174.4,116.6z M165.6,140.6    c-2,2-4.8,3.2-7.6,3.2c-2.8,0-5.6-1.2-7.6-3.2s-3.2-4.8-3.2-7.6c0-3.2,1.2-5.6,3.2-7.6s4.8-3.2,7.6-3.2c2.8,0,5.6,1.2,7.6,3.2    s3.2,4.8,3.2,7.6C168.8,135.8,167.6,138.6,165.6,140.6z" fill="#FFFFFF"/>
	</g>
</g>
<g>
</g>
<g>
</g>
<g>
</g>
<g>
</g>
<g>
</g>
<g>
</g>
<g>
</g>
<g>
</g>
<g>
</g>
<g>
</g>
<g>
</g>
<g>
</g>
<g>
</g>
<g>
</g>
<g>
</g>
</svg>
