<?xml version="1.0"?>
<svg xmlns="http://www.w3.org/2000/svg" id="_x31_" enable-background="new 0 0 24 24" height="512px" viewBox="0 0 24 24" width="512px"><path d="m14.5 20c-.276 0-.5-.224-.5-.5v-5c0-.276.224-.5.5-.5h1.5c1.103 0 2 .897 2 2s-.897 2-2 2h-1v1.5c0 .276-.224.5-.5.5zm.5-3h1c.552 0 1-.449 1-1s-.448-1-1-1h-1z" fill="#FFFFFF"/><path d="m19.5 24h-15c-1.379 0-2.5-1.122-2.5-2.5v-19c0-1.378 1.121-2.5 2.5-2.5h15c1.379 0 2.5 1.122 2.5 2.5v19c0 1.378-1.121 2.5-2.5 2.5zm-15-23c-.827 0-1.5.673-1.5 1.5v19c0 .827.673 1.5 1.5 1.5h15c.827 0 1.5-.673 1.5-1.5v-19c0-.827-.673-1.5-1.5-1.5z" fill="#FFFFFF"/><path d="m11.5 20c-.276 0-.5-.224-.5-.5v-5c0-.276.224-.5.5-.5s.5.224.5.5v5c0 .276-.224.5-.5.5z" fill="#FFFFFF"/><path d="m8.5 20h-3c-.18 0-.347-.097-.436-.253-.088-.157-.086-.349.007-.504l2.546-4.243h-2.117c-.276 0-.5-.224-.5-.5s.224-.5.5-.5h3c.18 0 .347.097.436.253.088.157.086.349-.007.504l-2.546 4.243h2.117c.276 0 .5.224.5.5s-.224.5-.5.5z" fill="#FFFFFF"/></svg>
