<svg id="_x31__x2C_5" enable-background="new 0 0 24 24" height="512" viewBox="0 0 24 24" width="512" xmlns="http://www.w3.org/2000/svg"><path d="m16.706.9h-5.143-8.27c-1.405 0-2.543 1.138-2.543 2.544v5.726 11.387c0 1.406 1.138 2.544 2.544 2.544h5.143 8.27c1.406 0 2.544-1.138 2.544-2.544v-5.727-11.386c-.001-1.406-1.139-2.544-2.545-2.544z" fill="#eceff1"/><path d="m21.975 10.65h-4.95c-.868 0-1.575-.707-1.575-1.575v-3.15c0-.868.707-1.575 1.575-1.575h4.95c.868 0 1.575.707 1.575 1.575v3.15c0 .868-.707 1.575-1.575 1.575z" fill="#ffc107"/><path d="m9.5 21c-.414 0-.75-.336-.75-.75v-4.5c0-.414.336-.75.75-.75s.75.336.75.75v4.5c0 .414-.336.75-.75.75z"/><path d="m6.25 21h-2.5c-.266 0-.512-.141-.646-.37-.135-.229-.139-.512-.009-.744l1.881-3.386h-1.226c-.414 0-.75-.336-.75-.75s.336-.75.75-.75h2.5c.266 0 .512.141.646.37.135.229.139.512.009.744l-1.881 3.386h1.226c.414 0 .75.336.75.75s-.336.75-.75.75z"/><path d="m12.75 21c-.414 0-.75-.336-.75-.75v-4.5c0-.414.336-.75.75-.75h1.25c1.103 0 2 .897 2 2s-.897 2-2 2h-.5v1.25c0 .414-.336.75-.75.75zm.75-3.5h.5c.275 0 .5-.225.5-.5s-.225-.5-.5-.5h-.5z"/><path d="m17.25 24h-14.5c-1.517 0-2.75-1.233-2.75-2.75v-18.5c0-1.517 1.233-2.75 2.75-2.75h12.09c.414 0 .75.336.75.75s-.336.75-.75.75h-12.09c-.689 0-1.25.561-1.25 1.25v18.5c0 .689.561 1.25 1.25 1.25h14.5c.689 0 1.25-.561 1.25-1.25v-7.75c0-.414.336-.75.75-.75s.75.336.75.75v7.75c0 1.517-1.233 2.75-2.75 2.75z"/><path d="m22.25 11h-5.5c-.965 0-1.75-.785-1.75-1.75v-3.5c0-.965.785-1.75 1.75-1.75h5.5c.965 0 1.75.785 1.75 1.75v3.5c0 .965-.785 1.75-1.75 1.75zm-5.5-5.5c-.138 0-.25.112-.25.25v3.5c0 .138.112.25.25.25h5.5c.138 0 .25-.112.25-.25v-3.5c0-.138-.112-.25-.25-.25z"/><path d="m21.25 5.5h-3.5c-.414 0-.75-.336-.75-.75v-2.25c0-1.379 1.121-2.5 2.5-2.5s2.5 1.121 2.5 2.5v2.25c0 .414-.336.75-.75.75zm-2.75-1.5h2v-1.5c0-.552-.448-1-1-1s-1 .448-1 1z"/></svg>